<svg width="32" height="32" viewBox="0 0 32 32" fill="none" xmlns="http://www.w3.org/2000/svg">
<path d="M22 10.6667H24.6667C25.0203 10.6667 25.3594 10.8071 25.6095 11.0572C25.8595 11.3072 26 11.6464 26 12V28C26 28.3536 25.8595 28.6928 25.6095 28.9428C25.3594 29.1929 25.0203 29.3333 24.6667 29.3333H3.33333C2.97971 29.3333 2.64057 29.1929 2.39052 28.9428C2.14048 28.6928 2 28.3536 2 28V12C2 11.6464 2.14048 11.3072 2.39052 11.0572C2.64057 10.8071 2.97971 10.6667 3.33333 10.6667H6V9.33333C6 7.2116 6.84286 5.17677 8.34315 3.67647C9.84344 2.17618 11.8783 1.33333 14 1.33333C16.1217 1.33333 18.1566 2.17618 19.6569 3.67647C21.1571 5.17677 22 7.2116 22 9.33333V10.6667ZM4.66667 13.3333V26.6667H23.3333V13.3333H4.66667ZM12.6667 18.6667H15.3333V21.3333H12.6667V18.6667ZM7.33333 18.6667H10V21.3333H7.33333V18.6667ZM18 18.6667H20.6667V21.3333H18V18.6667ZM19.3333 10.6667V9.33333C19.3333 7.91884 18.7714 6.56229 17.7712 5.56209C16.771 4.5619 15.4145 3.99999 14 3.99999C12.5855 3.99999 11.229 4.5619 10.2288 5.56209C9.22857 6.56229 8.66667 7.91884 8.66667 9.33333V10.6667H19.3333Z" fill="#342403"/>
</svg>
